<?xml version="1.0" encoding="UTF-8"?>
<svg id="Layer_2" data-name="Layer 2" xmlns="http://www.w3.org/2000/svg" viewBox="0 0 124.06 120.63">
  <defs>
    <style>
      .cls-1 {
        fill: none;
      }

      .cls-2 {
        fill: #96bfd9;
      }

      .cls-3 {
        fill: #130c0e;
      }
    </style>
  </defs>
  <path class="cls-2" d="M56.79,26.33c6.42,0,12.14-5.22,14.54-12.49.53-1.96.82-4.07.82-6.26,0-2.69-.44-5.25-1.22-7.58h-28.23c-.79,2.33-1.22,4.89-1.22,7.58,0,.86.05,1.71.13,2.55,1.23-.29,2.49-.43,3.76-.38,3.94.13,7.42,1.97,9.54,5.04l-.97.67c-1.91-2.76-5.05-4.41-8.61-4.53-4.57-.15-9.16,2.23-12.02,6.08-.46.76-.85,1.56-1.15,2.4.7.36,1.38.74,2.04,1.15,1.3-3.01,4.29-5.11,7.77-5.11,4.67,0,8.46,3.79,8.46,8.46,0,3.65-2.32,6.76-5.56,7.94l8.24,5.85-.68.96-6.97-4.95c-.38-.53-.99-.87-1.69-.87-1.15,0-2.07.93-2.07,2.07s.93,2.07,2.07,2.07c.56,0,1.08-.23,1.45-.59-.02.38-.03.77-.03,1.16,0,5.58,1.79,10.77,4.85,15.05-.15.24-.23.52-.23.82,0,.87.7,1.57,1.57,1.57s1.57-.7,1.57-1.57c0-.12-.02-.24-.04-.36-.11-.93-.18-1.87-.18-2.83,0-10.02,6.3-18.56,15.15-21.9-.33-1.6-.89-3.12-1.66-4.53-2.72,2.34-5.98,3.72-9.42,3.72-1.09,0-2.17-.14-3.22-.41l.3-1.14c.95.25,1.93.37,2.92.37ZM43.75,36.04c-.63,0-1.14-.51-1.14-1.14s.51-1.14,1.14-1.14,1.14.51,1.14,1.14-.51,1.14-1.14,1.14ZM51.36,54.28c-.48,0-.87-.39-.87-.87s.39-.87.87-.87.87.39.87.87-.39.87-.87.87Z"/>
  <path class="cls-3" d="M29.4,44.53c1.98-6.1-1.21-13.16-7.39-17.69-1.7-1.11-3.61-2.04-5.7-2.72-2.56-.83-5.13-1.21-7.59-1.18L0,49.8c1.97,1.47,4.27,2.67,6.83,3.51.82.27,1.64.48,2.46.66.1-1.26.36-2.5.79-3.69,1.34-3.7,4.16-6.44,7.74-7.51l.34,1.13c-3.21.96-5.75,3.44-6.97,6.79-1.56,4.3-.72,9.4,2.07,13.31.58.67,1.22,1.29,1.93,1.84.56-.56,1.13-1.08,1.73-1.58-2.46-2.16-3.54-5.65-2.46-8.97,1.44-4.44,6.21-6.87,10.66-5.43,3.47,1.13,5.72,4.29,5.84,7.74l8.12-6.03.7.94-6.87,5.1c-.62.2-1.14.67-1.35,1.34-.35,1.09.24,2.26,1.33,2.61,1.09.35,2.26-.24,2.61-1.33.17-.54.12-1.09-.12-1.56.36.13.72.27,1.09.39,5.31,1.73,10.79,1.62,15.82.04.18.21.42.38.71.47.83.27,1.71-.18,1.98-1.01.27-.83-.18-1.71-1.01-1.98-.12-.04-.24-.06-.36-.07-.92-.18-1.83-.41-2.75-.71-9.53-3.1-15.71-11.73-16.15-21.17-1.62-.18-3.24-.12-4.82.18,1.38,3.31,1.69,6.83.62,10.11-.34,1.04-.8,2.03-1.39,2.94l-.99-.63c.53-.83.95-1.72,1.26-2.66ZM34.6,59.93c-.19.6-.84.93-1.44.74-.6-.2-.93-.84-.73-1.44.2-.6.84-.93,1.44-.73.6.19.93.84.73,1.44ZM54.3,58.32c-.15.46-.64.71-1.1.56-.46-.15-.71-.64-.56-1.09.15-.46.64-.71,1.09-.56.46.15.71.64.56,1.09Z"/>
  <path class="cls-3" d="M38.25,76.2c-5.19-3.77-12.89-2.91-19.1,1.56-1.58,1.27-3.06,2.81-4.34,4.58-1.58,2.18-2.73,4.51-3.46,6.85l22.84,16.59c2.01-1.42,3.86-3.24,5.45-5.41.51-.7.97-1.41,1.39-2.14-1.17-.49-2.27-1.12-3.27-1.9-3.11-2.42-4.84-5.95-4.75-9.68l1.18.03c-.08,3.35,1.49,6.53,4.3,8.73,3.61,2.81,8.72,3.59,13.29,2.15.82-.34,1.6-.76,2.34-1.27-.36-.7-.68-1.41-.97-2.13-2.82,1.67-6.47,1.61-9.29-.43-3.78-2.75-4.62-8.03-1.87-11.81,2.15-2.96,5.85-4.11,9.17-3.16l-3.23-9.58,1.11-.37,2.73,8.11c0,.65.29,1.29.85,1.7.93.67,2.22.47,2.89-.46.67-.92.47-2.22-.46-2.89-.46-.33-1-.45-1.52-.38.24-.3.48-.6.7-.92,3.28-4.52,4.88-9.76,4.92-15.03.26-.11.49-.28.67-.53.51-.7.35-1.69-.35-2.2-.7-.51-1.69-.35-2.2.35-.07.1-.13.21-.18.32-.46.82-.96,1.62-1.52,2.4-5.89,8.1-16.01,11.32-25.13,8.81-.68,1.49-1.11,3.05-1.32,4.64,3.57-.29,7.02.5,9.81,2.53.88.64,1.68,1.39,2.36,2.23l-.91.75c-.62-.76-1.34-1.44-2.15-2.02ZM54.5,76.01c.51.37.62,1.09.25,1.6-.37.51-1.09.62-1.6.25-.51-.37-.62-1.09-.25-1.6.37-.51,1.09-.62,1.6-.25ZM59.06,56.78c.39.28.47.83.19,1.21-.28.39-.82.48-1.21.19-.39-.28-.47-.83-.19-1.21.28-.39.83-.48,1.21-.19Z"/>
  <path class="cls-3" d="M82.56,46.75c1.98,6.1,8.72,9.93,16.37,9.97,2.03-.1,4.12-.48,6.21-1.15,2.56-.83,4.86-2.04,6.83-3.51l-8.72-26.85c-2.46-.03-5.03.35-7.59,1.18-.82.27-1.61.57-2.38.91.66,1.08,1.18,2.24,1.53,3.45,1.09,3.79.42,7.66-1.84,10.63l-.93-.71c2.03-2.67,2.63-6.16,1.65-9.59-1.27-4.4-4.95-8.03-9.49-9.55-.86-.2-1.74-.33-2.64-.35-.12.78-.28,1.54-.47,2.3,3.26.3,6.18,2.5,7.26,5.81,1.44,4.44-.99,9.21-5.43,10.65-3.47,1.13-7.15-.11-9.28-2.83l-3.02,9.65-1.12-.35,2.56-8.16c.38-.52.52-1.21.31-1.88-.35-1.09-1.52-1.68-2.61-1.33-1.09.35-1.68,1.52-1.33,2.61.17.54.55.95,1.01,1.2-.37.1-.74.21-1.11.33-5.31,1.73-9.68,5.03-12.82,9.27-.27-.07-.56-.06-.85.03-.83.27-1.28,1.16-1.01,1.98.27.83,1.16,1.28,1.98,1.01.12-.04.23-.09.33-.15.85-.39,1.73-.75,2.64-1.04,9.53-3.1,19.6.25,25.51,7.64,1.42-.81,2.69-1.81,3.79-2.98-3.06-1.86-5.38-4.53-6.45-7.81-.34-1.04-.54-2.11-.6-3.19l1.17-.07c.06.98.24,1.95.55,2.9ZM69.3,37.35c-.19-.6.13-1.25.73-1.44.6-.2,1.25.13,1.44.73.2.6-.13,1.25-.73,1.44-.6.19-1.25-.13-1.44-.73ZM54.31,50.23c-.15-.46.1-.95.56-1.1.46-.15.95.1,1.09.56.15.46-.1.95-.56,1.1-.46.15-.95-.1-1.1-.56Z"/>
  <path class="cls-1" d="M59.06,51.78c-.39.28-.47.83-.19,1.21.28.39.83.48,1.21.19.39-.28.47-.83.19-1.22-.28-.39-.82-.47-1.21-.19Z"/>
  <path class="cls-1" d="M51.36,54.28c.48,0,.87-.39.87-.87s-.39-.87-.87-.87-.87.39-.87.87.39.87.87.87Z"/>
  <path class="cls-3" d="M100.26,117.81l-13.15-18.1-3.26,2.37c.21.65,0,1.38-.58,1.8-.72.52-1.72.36-2.25-.36-.52-.72-.36-1.72.36-2.24.58-.42,1.35-.4,1.9,0l16.01-11.63c5.77-1.33,11.09-.18,13.8,3.56,4.24,5.83.56,15.72-8.21,22.1-1.1.8-2.23,1.51-3.38,2.12l2.07,2.85c2.87-.94,5.65-2.34,8.23-4.21,12.12-8.81,15.63-25.07,8.8-37.94l-.3.22c.39,2.74-.71,5.59-3.09,7.32-.06.04-.12.08-.18.12l-.69-.95c.06-.04.12-.08.18-.12,2.91-2.12,3.56-6.21,1.44-9.12-2.12-2.91-6.21-3.56-9.12-1.44-.06.04-.11.09-.17.13l-.69-.95c.06-.05.11-.09.17-.13,2.38-1.73,5.42-1.89,7.9-.69l.43-.31c-10.04-11.24-27.16-13.27-39.62-4.23-.82.6-1.6,1.23-2.34,1.89,2.79,2.13,10.76,8.21,10.76,8.21l-.71.94-12.28-9.38.09-.37c.14-.58.24-1.16.31-1.73.4-6.58-3.71-12.83-10.29-14.86-.42-.13-.84-.24-1.25-.33-.02-.28-.12-.56-.29-.8-.51-.7-1.49-.86-2.2-.35-.7.51-.86,1.49-.35,2.2.07.1.16.19.25.27.64.68,1.24,1.41,1.81,2.19.19.26.37.52.55.79,1.42,2.37,2.1,5.04,2.07,7.69l7.37,10.14s-.01.02-.02.03l15.48,21.31-.99.72-3.24-4.46c-7.16,7.88-9.56,17.41-5.18,23.42,4.37,6.02,14.17,6.68,23.87,2.31ZM110.4,76.3c1.73-1.26,4.16-.88,5.42.86,1.26,1.73.88,4.16-.86,5.42-1.73,1.26-4.16.88-5.42-.86-1.26-1.73-.87-4.16.86-5.42ZM59.06,51.78c.39-.28.93-.2,1.21.19.28.39.2.93-.19,1.22-.39.28-.93.2-1.21-.19-.28-.39-.2-.93.19-1.21Z"/>
</svg>